# xmcd
#
# Track frame offsets: 
#        150
#        11382
#        22320
#        34315
#        46277
#        57897
#        69487
#        80567
#        92985
#        105212
#        117652
#        129810
#
# Disc length: 1865 seconds
#
# Revision: 0
# Processed by: cddbd v1.5.2PL0 Copyright (c) Steve Scherf et al.
# Submitted via: ExactAudioCopy v0.95b3
#
DISCID=9a07470c
DTITLE=Jordan, Lorraine and Carolina Road - A Stop In South Port Towne
DYEAR=1900
DGENRE=Bluegrass
TTITLE0=Tupelo County Jail
TTITLE1=My Old Kentucky And You
TTITLE2=A Stop In SouthPort Towne
TTITLE3=Pickin With The Boys
TTITLE4=Cry Cry Darling
TTITLE5=Take My Back To Kentucky
TTITLE6=A Beautiful River Of Life
TTITLE7=Portrait Of The Blues
TTITLE8=I'm Not Alone
TTITLE9=I Think I'll Go Away
TTITLE10=Mays' Store
TTITLE11=My Hearts Cry
EXTD=
EXTT0=
EXTT1=
EXTT2=
EXTT3=
EXTT4=
EXTT5=
EXTT6=
EXTT7=
EXTT8=
EXTT9=
EXTT10=
EXTT11=
PLAYORDER=
